<?xml version="1.0" encoding="UTF-8"?>
<svg id="svg167" width="192" height="192" version="1.1" viewBox="0 0 192 192" xmlns="http://www.w3.org/2000/svg" xmlns:cc="http://creativecommons.org/ns#" xmlns:dc="http://purl.org/dc/elements/1.1/" xmlns:rdf="http://www.w3.org/1999/02/22-rdf-syntax-ns#" xmlns:xlink="http://www.w3.org/1999/xlink">
	<defs id="defs46">
		<linearGradient id="linearGradient169" x1="-217.64" x2="-71.386" y1="-9.6694" y2="61.468" gradientTransform="matrix(7.1219 0 0 3.8936 1521.7 18.615)" gradientUnits="userSpaceOnUse" spreadMethod="repeat">
			<stop id="stop174" stop-color="#82d0ff" offset="0"/>
			<stop id="stop175" stop-color="#ffa2ff" offset=".33956"/>
			<stop id="stop176" stop-color="#d6b7ff" offset=".43608"/>
			<stop id="stop4" stop-color="#d6b7ff" offset=".57608"/>
			<stop id="stop177" stop-color="#ff97cc" offset=".80629"/>
		</linearGradient>
	</defs>
	<metadata id="metadata1">
		<rdf:RDF>
			<cc:Work rdf:about="">
				<dc:format>image/svg+xml</dc:format>
				<dc:type rdf:resource="http://purl.org/dc/dcmitype/StillImage"/>
			</cc:Work>
		</rdf:RDF>
	</metadata>
	<rect id="bg-rect" width="992" height="192" ry="0" fill="url(#linearGradient169)">
		<animateMotion
			path="M0,0 H-800 H0"
      		dur="10s"
      		repeatCount="indefinite"
		/>
	</rect>
	<g id="g35">
		<g id="g1" transform="translate(129.5,316.5)">
			<path id="path10" d="m-100.67-251.37c-0.21208 0.12244-0.27572 0.28429-0.14056 0.36232l36.513 21.081c0.13517 0.078 0.41718 0.0423 0.62926-0.0802l103.08-59.513c0.21208-0.12244 0.27235-0.28428 0.13719-0.36232l-36.513-21.081c-0.13516-0.078-0.4138-0.0423-0.62588 0.0802zm50.79-23.4c1.4014-0.80911 2.7572-1.3211 4.0689-1.5347 1.3332-0.22608 2.6014-0.24099 3.803-0.0451 1.2018 0.17103 2.3065 0.46069 3.3134 0.86777 1.0071 0.38228 1.9056 0.78905 2.6975 1.2214l-4.3714 3.2278c-0.79198-0.43235-1.5081-0.7847-2.1508-1.0562-0.64252-0.29624-1.2316-0.46135-1.7684-0.49739-0.55816-0.0484-1.0858 0.0704-1.5817 0.35667-0.53901 0.31119-0.71345 0.67058-0.52277 1.0794 0.21224 0.39639 0.54382 0.72424 0.99322 0.98371 0.96301 0.55599 1.9814 0.88334 3.0548 0.98024 1.0735 0.0721 2.3188 0.0806 3.7368 0.028l4.06-0.15666c2.1057-0.10373 4.1584-0.028 6.1544 0.22812 2.0176 0.24369 3.9245 0.88454 5.7221 1.9224 1.2198 0.70427 2.0524 1.5087 2.4977 2.413 0.42384 0.89199 0.40573 1.8037-0.05136 2.7348-0.43553 0.91865-1.3527 1.7816-2.7542 2.5907-1.6386 0.94603-3.2972 1.5702-4.9745 1.8714-1.6774 0.30124-3.395 0.2684-5.154-0.0999-1.7804-0.38062-3.6656-1.1087-5.6563-2.1834l4.2083-3.2829c1.1344 0.63005 2.1308 1.0934 2.9881 1.3891 0.87886 0.28335 1.6297 0.41764 2.2528 0.4039 0.64457-0.0262 1.2058-0.17645 1.6801-0.45031 0.60369-0.34853 0.78856-0.68968 0.55443-1.024-0.21256-0.34678-0.5443-0.65027-0.99371-0.90974-1.07-0.61777-2.2286-0.98744-3.4736-1.1088-1.2665-0.13369-2.7154-0.16199-4.3484-0.0841l-4.2236 0.17745c-1.8264 0.0907-3.6071 0.0317-5.3456-0.17536-1.7384-0.23189-3.3893-0.79827-4.9515-1.7002-2.2042-1.2726-3.2265-2.6222-3.067-4.0487 0.13816-1.4389 1.3396-2.8115 3.6034-4.1185zm25.753-14.868c1.9404-1.1203 3.7804-1.8128 5.522-2.077 1.7631-0.27662 3.449-0.2235 5.0575 0.15748 1.6085 0.38099 3.173 1.0094 4.6924 1.8867l1.6693 0.96376-5.6595 3.2675-2.1194-1.2236c-0.55641-0.32124-1.1132-0.59187-1.6702-0.81388-0.53552-0.23447-1.081-0.35192-1.6395-0.35072-0.55833-0.0236-1.1407 0.13889-1.7444 0.48743-0.62525 0.36099-0.90686 0.72157-0.84473 1.0811 0.04072 0.34716 0.26338 0.68742 0.66934 1.0214 0.4275 0.32154 0.91021 0.63687 1.4452 0.94575l12.038 6.95c0.57781 0.3336 1.1767 0.61825 1.7981 0.85254 0.62156 0.20949 1.2444 0.31872 1.8672 0.32979 0.623-0.0137 1.2265-0.18846 1.8087-0.52455 0.60369-0.34854 0.9047-0.7082 0.90709-1.0802 0.002401-0.37206-0.18673-0.74382-0.57097-1.115-0.38424-0.37122-0.865-0.72408-1.4428-1.0577l-3.0497-1.7608-2.3619 1.3636-3.3705-1.9459 7.568-4.3694 13.482 7.7838-3.8153 2.2028-2.4761-1.0545c0.38264 0.61925 0.48731 1.264 0.31116 1.934-0.19756 0.6577-0.8692 1.3163-2.0119 1.976-1.8111 1.0456-3.6189 1.657-5.4243 1.8345-1.7839 0.16505-3.5761-0.0106-5.3771-0.52759-1.8008-0.54179-3.5891-1.3259-5.3653-2.3514l-8.731-5.0408c-1.8404-1.0626-3.1983-2.1194-4.0722-3.1716-0.8739-1.0522-1.1024-2.1186-0.68733-3.1984 0.41526-1.1046 1.6151-2.2298 3.5987-3.375zm-64.282 37.52 6.6289-3.8272c2.2854-1.3195 4.353-2.1798 6.2029-2.5806 1.8285-0.41318 3.613-0.41703 5.3502-0.0115 1.7159 0.39315 3.5343 1.1458 5.4603 2.2577l9.438 5.449c1.9474 1.1244 3.2842 2.1934 4.0079 3.2088 0.70237 1.003 0.70622 2.0394 0.01198 3.1074-0.67269 1.0556-2.1416 2.2371-4.4055 3.5441l-6.6932 3.8643zm18.293-10.561 11.772-6.7968 3.9163 2.2611-5.9843 3.455 6.4521 3.7251 4.5597-2.6326 3.9801 2.2979-4.5597 2.6326 7.7687 4.4853 6.0486-3.4922 3.8844 2.2426-11.837 6.8339zm29.795-17.202 5.7881-3.3417 26.002 15.012-5.7881 3.3417zm27.208-15.708 4.0741-2.3522 17.888 4.1287-12.52-7.2282 4.7864-2.7634 26.002 15.012-3.9134 2.2594-18.85-4.6843 13.482 7.7838-4.9472 2.8562zm-65.495 42.446 18.009 10.398 0.90518-0.5226c0.88398-0.51037 1.3909-0.95255 1.5222-1.3249 0.13128-0.37232-0.01574-0.73199-0.44311-1.0783-0.40581-0.35878-0.99509-0.76011-1.7655-1.2049l-11.331-6.5418c-0.77041-0.4448-1.4551-0.76677-2.0553-0.96391-0.57861-0.20958-1.1684-0.26311-1.7705-0.16261-0.60208 0.10051-1.3364 0.39924-2.1988 0.89715z" fill="#fff" stroke-linecap="round" stroke-miterlimit="8" stroke-width=".71773"/>
			<path id="text10" transform="matrix(.65228 -.37659 .64742 .37379 31.218 -297.8)" d="m-90.357 43.342v-17.28h5.4827q1.5573 0 2.5387 0.59733 0.98133 0.576 1.4507 1.6853 0.49067 1.1093 0.49067 2.688 0 1.856-0.64 2.9013-0.61867 1.0453-1.7067 1.4933-1.088 0.42667-2.496 0.42667h-1.6v7.488zm3.52-9.9627h1.2373q0.768 0 1.1733-0.23467 0.42667-0.256 0.576-0.78933 0.14933-0.53333 0.14933-1.3653 0-0.78933-0.128-1.3227-0.10667-0.53333-0.512-0.832-0.40533-0.29867-1.28-0.29867h-1.216zm12.317 10.197q-1.8987 0-3.008-0.68266-1.1093-0.68267-1.6-1.9413-0.46933-1.28-0.46933-3.0507v-6.4427q0-1.7707 0.46933-3.0293 0.49067-1.2587 1.6-1.92 1.1093-0.66133 3.008-0.66133 1.92 0 3.0293 0.68267 1.1307 0.66133 1.6 1.92 0.49066 1.2373 0.49066 3.008v6.4427q0 1.7707-0.49066 3.0507-0.46933 1.2587-1.6 1.9413-1.1093 0.68266-3.0293 0.68266zm0-2.5387q0.68266 0 1.0027-0.29867 0.32-0.32 0.42667-0.832 0.10667-0.53333 0.10667-1.1307v-8.1707q0-0.59733-0.10667-1.1093-0.10667-0.512-0.42667-0.81066-0.32-0.32-1.0027-0.32-0.64 0-0.96 0.32-0.32 0.29867-0.42667 0.81066-0.10667 0.512-0.10667 1.1093v8.1707q0 0.59733 0.08533 1.1307 0.10667 0.512 0.42667 0.832 0.32 0.29867 0.98133 0.29867zm6.7067 2.304v-17.28h4.48q1.7493 0 2.9867 0.40533 1.2587 0.384 1.92 1.3867 0.68267 1.0027 0.68267 2.7733 0 1.0667-0.192 1.8987-0.17067 0.81066-0.64 1.4293-0.448 0.59733-1.28 0.96l2.3893 8.4267h-3.6053l-1.984-7.8293h-1.2373v7.8293zm3.52-9.92h1.024q0.85333 0 1.344-0.27733t0.68267-0.832q0.21333-0.576 0.21333-1.408 0-1.1947-0.448-1.8133-0.42667-0.64-1.6213-0.64h-1.1947zm9.5227 9.92v-14.656h-2.6667v-2.624h8.832v2.624h-2.624v14.656zm6.9626 0v-17.28h7.296v2.3893h-3.776v4.672h3.2v2.4533h-3.2v7.7653zm13.128 0.23467q-1.8987 0-3.008-0.68266-1.1093-0.68267-1.6-1.9413-0.46933-1.28-0.46933-3.0507v-6.4427q0-1.7707 0.46933-3.0293 0.49067-1.2587 1.6-1.92 1.1093-0.66133 3.008-0.66133 1.92 0 3.0293 0.68267 1.1307 0.66133 1.6 1.92 0.49067 1.2373 0.49067 3.008v6.4427q0 1.7707-0.49067 3.0507-0.46933 1.2587-1.6 1.9413-1.1093 0.68266-3.0293 0.68266zm0-2.5387q0.68266 0 1.0027-0.29867 0.32-0.32 0.42667-0.832 0.10667-0.53333 0.10667-1.1307v-8.1707q0-0.59733-0.10667-1.1093-0.10667-0.512-0.42667-0.81066-0.32-0.32-1.0027-0.32-0.64 0-0.96 0.32-0.32 0.29867-0.42667 0.81066-0.10667 0.512-0.10667 1.1093v8.1707q0 0.59733 0.08533 1.1307 0.10667 0.512 0.42667 0.832 0.32 0.29867 0.98133 0.29867zm6.7067 2.304v-17.28h3.52v14.891h4.0533v2.3893zm8.52 0v-17.28h3.4987v17.28zm10.205 0.23467q-1.8987 0-3.008-0.68266-1.1093-0.68267-1.6-1.9413-0.46933-1.28-0.46933-3.0507v-6.4427q0-1.7707 0.46933-3.0293 0.49067-1.2587 1.6-1.92 1.1093-0.66133 3.008-0.66133 1.92 0 3.0293 0.68267 1.1307 0.66133 1.6 1.92 0.49067 1.2373 0.49067 3.008v6.4427q0 1.7707-0.49067 3.0507-0.46933 1.2587-1.6 1.9413-1.1093 0.68266-3.0293 0.68266zm0-2.5387q0.68267 0 1.0027-0.29867 0.32-0.32 0.42667-0.832 0.10667-0.53333 0.10667-1.1307v-8.1707q0-0.59733-0.10667-1.1093-0.10667-0.512-0.42667-0.81066-0.32-0.32-1.0027-0.32-0.64 0-0.96 0.32-0.32 0.29867-0.42667 0.81066-0.10667 0.512-0.10667 1.1093v8.1707q0 0.59733 0.08533 1.1307 0.10667 0.512 0.42667 0.832 0.32 0.29867 0.98133 0.29867z" fill="#fff" aria-label="PORTFOLIO"/>
			<path id="text17" transform="matrix(.65269 -.37683 .64785 .37404 -74.739 -304.4)" d="m-88.8 43.342-2.24-17.28h2.9867l1.1947 10.56 1.5147-10.539h2.368l1.5787 10.517 1.1947-10.539h2.944l-2.2187 17.28h-2.9867l-1.6853-10.944-1.6 10.944zm12.701 0v-17.28h7.5307v2.432h-4.0107v4.5867h3.0933v2.4533h-3.0933v5.4187h4.0533v2.3893zm8.584 0v-17.28h4.3733q1.1307 0 2.0907 0.192 0.96 0.192 1.6853 0.68266 0.74666 0.49067 1.1307 1.3653 0.40533 0.85333 0.40533 2.24 0 1.0453-0.29867 1.792-0.29867 0.72533-0.85333 1.152-0.55466 0.42667-1.3653 0.576 1.0027 0.14933 1.6853 0.68267 0.68266 0.53333 1.024 1.408t0.34133 2.112q0 1.3013-0.34133 2.2613-0.32 0.96-0.96 1.5787-0.64 0.61867-1.5787 0.93867-0.93867 0.29867-2.176 0.29867zm3.52-2.4747h0.98133q1.3227 0 1.8133-0.66133 0.512-0.66133 0.512-1.984 0-1.024-0.23467-1.6213-0.23467-0.61867-0.768-0.896-0.512-0.29867-1.3867-0.29867h-0.91733zm0-7.8293h0.87466q0.91733 0 1.3867-0.256 0.46933-0.27733 0.64-0.81067 0.192-0.55467 0.192-1.344t-0.27733-1.2587q-0.256-0.49067-0.81066-0.704-0.53333-0.21333-1.3653-0.21333h-0.64z" fill="#fff" aria-label="WEB"/>
			<g id="g18" transform="matrix(1.0028 -.57897 .99536 .57467 -263.37 -205.39)">
				<g id="g17" transform="matrix(1.1461 0 0 1.1461 5.5813 -25.154)" stroke-linecap="round" stroke-miterlimit="8">
					<path id="path17" d="m172.2 109.05-31.559 0.0215c-3.4277 2e-3 -4.7279 1.4476-4.7305 3.707l-0.0762 67.445c-3e-3 2.9417 1.3481 3.7422 4.8066 3.7422l31.559 2e-3c4.3544 2.5e-4 4.6885-2.3845 4.6895-3.7441l0.0469-67.445c1e-3 -1.6612-0.92325-3.7312-4.7363-3.7285zm-31.559 1.3887h7.6387c0.35421-2.3e-4 0.64171 0.28641 0.64258 0.64062v1.377c1.2e-4 0.48168 0.39136 0.87294 0.87305 0.87305h13.121c0.52082 3.4e-4 0.9437-0.42254 0.94336-0.94336v-1.2422c2.3e-4 -0.38929 0.31579-0.70482 0.70508-0.70507h7.6348c1.639 0 2.9336 1.2084 2.9336 2.6934v66.738c0 1.4849-1.2946 2.6934-2.9336 2.6934h-31.559c-1.639 0-2.9316-1.2084-2.9316-2.6934v-66.738c0-1.4849 1.2927-2.6934 2.9316-2.6934zm13.148 0.94922h5.1914a0.5 0.5 0 0 1 0.5 0.5 0.5 0.5 0 0 1-0.5 0.5h-5.1914a0.5 0.5 0 0 1-0.5-0.5 0.5 0.5 0 0 1 0.5-0.5z" color="#000000" fill="#fff" fill-opacity=".4" stroke-width="1.0314" style="-inkscape-stroke:none"/>
					<rect id="rect17" transform="rotate(90)" x="109.03" y="-176.86" width="74.927" height="40.927" rx="3.014" ry="3.4407" fill="none" stroke="#fff" stroke-width=".7"/>
				</g>
				<path id="path18" d="m170.43 109.28c-1.5081 0-2.721 1.216-2.721 2.7241v24.317c0 1.5081 1.2129 2.7241 2.721 2.7241h28.782c1.5081 0 2.721-1.216 2.721-2.7241v-24.317c0-1.5081-1.2129-2.7241-2.721-2.7241zm24.061 4.5401c0.80976 0 1.4853 0.67346 1.4853 1.4791v15.178c0 0.80607-0.67508 1.4773-1.4853 1.476l-5.314-0.0103v2.5587h-8.7121v-2.5774l-5.3171-0.0103c-0.80943-2e-3 -1.4822-0.67389-1.4822-1.4791v-15.137c0-0.80564 0.67545-1.476 1.4853-1.476zm-19.028 1.7911v14.516l18.716 0.0374v-14.553zm1.632 1.6382h4.0658v1.348h-2.721v3.1173h-1.3449zm14.107 6.8118h1.3449v4.4653h-4.0659v-1.348h2.721z" fill="#fff" fill-opacity=".6"/>
			</g>
			<g id="g19" transform="matrix(1.0436 .60254 -1.0514 .60704 -21.498 -323.75)" stroke-width="1.0016">
				<rect id="rect18" x="63.332" y="64.645" width="76.737" height="66.737" rx="0" ry="0" fill="none" stroke="#fff" stroke-linecap="round" stroke-miterlimit="8"/>
				<path id="path19" d="m80.016 74.827c-1.8158 0-3.3309 1.5073-3.3309 3.3138v33.94c0 1.8054 1.5122 3.3126 3.3271 3.3161l11.921 0.0228v5.7796h19.535v-5.7417l11.913 0.0228c1.8167 3e-3 3.3354-1.504 3.3354-3.3114v-34.029c0-1.8064-1.5156-3.3138-3.3312-3.3138zm0.7029 4.0126h41.963v32.628l-41.963-0.0806zm3.6574 3.6743v10.007h3.0175v-6.9892h6.0989v-3.0175zm31.63 15.273v6.9893h-6.099v3.0175h9.1164v-10.007z" color="#000000" fill="#fff"/>
			</g>
			<path id="path20" d="m-101.83-226.44 8.7402 5.0462a3.1165 5.3983 89.63 0 0 7.6337-0.0164l4.7896-2.7653a3.1622 5.4774 89.63 0 0 0.02994-4.4721l-2.3949-1.3827 1.6655-0.96156a1.4865 2.5748 89.63 0 0 0.01356-2.1023l-2.7425-1.5834a1.3985 2.4224 89.63 0 0-3.4265 7e-3l-9.7905 5.6525 2.1603 1.2473 2.9884-0.20154a0.2289 0.39648 89.63 0 1 0.32554 0.0654l3.8026 2.1954a0.35655 0.6176 89.63 0 1-0.0043 0.50418l-3.5706 2.0615a0.34646 0.60012 89.63 0 1-0.84819 2e-3l-3.7994-2.1936a0.23972 0.41524 89.63 0 1-0.11866-0.19359l0.30754-1.7064-2.1897-1.2642zm14.442-6.217 1.5561-0.89838c0.0801-0.0462 0.19501-0.0542 0.2574-0.0182l2.4471 1.4128c0.06251 0.0361 0.04752 0.10174-0.03258 0.14799l-1.5561 0.89838c-0.0801 0.0462-0.19388 0.0548-0.25631 0.0188l-2.4471-1.4128c-0.06251-0.0361-0.04861-0.10236 0.03149-0.14861zm-0.33574 14.355 1.9117 1.0836 14.234-8.2182-1.8942-1.0936z" fill="#fff" opacity=".5"/>
			<path id="path21" d="m-120.37-237.15 8.7403 5.0462a3.1165 5.3983 89.63 0 0 7.6336-0.0164l4.7896-2.7653a3.1622 5.4774 89.63 0 0 0.02994-4.4721l-2.3949-1.3827 1.6655-0.96157a1.4865 2.5748 89.63 0 0 0.01356-2.1023l-2.7425-1.5834a1.3985 2.4224 89.63 0 0-3.4265 7e-3l-9.7904 5.6525 2.1604 1.2473 2.9884-0.20154a0.2289 0.39648 89.63 0 1 0.32553 0.0654l3.8026 2.1954a0.35655 0.6176 89.63 0 1-4e-3 0.50418l-3.5706 2.0615a0.34646 0.60012 89.63 0 1-0.84819 2e-3l-3.7994-2.1936a0.23972 0.41524 89.63 0 1-0.11866-0.1936l0.30754-1.7064-2.1897-1.2642zm14.442-6.217 1.556-0.89839c0.0801-0.0463 0.19501-0.0542 0.25741-0.0182l2.4471 1.4128c0.0625 0.0361 0.0475 0.10173-0.0326 0.14798l-1.556 0.89839c-0.0801 0.0462-0.19388 0.0549-0.2563 0.0188l-2.4471-1.4128c-0.0625-0.0361-0.0486-0.10237 0.0315-0.14861zm-0.33574 14.355 1.9117 1.0836 14.234-8.2182-1.8942-1.0936z" fill="#fff" opacity=".5"/>
			<path id="path26" d="m-138.91-247.85 8.7402 5.0462a3.1165 5.3983 89.63 0 0 7.6337-0.0164l4.7896-2.7653a3.1622 5.4774 89.63 0 0 0.0299-4.4721l-2.395-1.3827 1.6655-0.96156a1.4865 2.5748 89.63 0 0 0.0136-2.1023l-2.7425-1.5834a1.3985 2.4224 89.63 0 0-3.4265 7e-3l-9.7904 5.6525 2.1604 1.2473 2.9884-0.20155a0.2289 0.39648 89.63 0 1 0.32553 0.0654l3.8026 2.1954a0.35655 0.6176 89.63 0 1-4e-3 0.50419l-3.5706 2.0615a0.34646 0.60012 89.63 0 1-0.84819 2e-3l-3.7994-2.1936a0.23972 0.41524 89.63 0 1-0.11866-0.19359l0.30754-1.7064-2.1897-1.2642zm14.442-6.217 1.5561-0.89839c0.0801-0.0463 0.195-0.0542 0.25739-0.0182l2.4471 1.4128c0.0625 0.0361 0.0475 0.10174-0.0326 0.14799l-1.556 0.89838c-0.0801 0.0462-0.19388 0.0548-0.25631 0.0188l-2.4471-1.4128c-0.0625-0.0361-0.0486-0.10236 0.0315-0.1486zm-0.33575 14.355 1.9117 1.0836 14.234-8.2182-1.8942-1.0936z" fill="#fff" opacity=".5"/>
			<rect id="rect30" transform="matrix(.86603 -.5 .86603 .5 0 0)" x="99.564" y="-234.84" width="103.12" height="102.4" rx=".17859" ry=".13938" fill="#fff" opacity=".25" stroke-linecap="round" stroke-miterlimit="8" stroke-width=".34483"/>
			<rect id="rect31" transform="matrix(.86603 -.5 .86603 .5 0 0)" x="113" y="-318.67" width="153.39" height="152.32" rx=".26565" ry=".20733" fill="#fff" opacity=".3" stroke-linecap="round" stroke-miterlimit="8" stroke-width=".51293"/>
		</g>
	</g>
</svg>
